REM DIRINDEX 1\2,1\3,1\4,1\5
REM DIRNAME cjc004,folder01,folder02,folder03,folder04
TITLE ""
FILE "1Q_t_1570-1579.mp3" MP3
  TRACK 01 AUDIO
    TITLE "3:cjc004_5616"
    INDEX 01 00:00:00
  TRACK 02 AUDIO
    TITLE "0:"
    INDEX 01 00:00:64
  TRACK 03 AUDIO
    TITLE "4:cjc004_5617"
    INDEX 01 00:01:22
  TRACK 04 AUDIO
    TITLE "0:"
    INDEX 01 00:02:45
  TRACK 05 AUDIO
    TITLE "5:cjc004_5618"
    INDEX 01 00:02:73
  TRACK 06 AUDIO
    TITLE "0:"
    INDEX 01 00:07:07
  TRACK 07 AUDIO
    TITLE "3:cjc004_5619"
    INDEX 01 00:07:68
  TRACK 08 AUDIO
    TITLE "0:"
    INDEX 01 00:08:66
  TRACK 09 AUDIO
    TITLE "4:cjc004_5620"
    INDEX 01 00:09:22
  TRACK 10 AUDIO
    TITLE "0:"
    INDEX 01 00:10:33
  TRACK 11 AUDIO
    TITLE "5:cjc004_5621"
    INDEX 01 00:10:63
  TRACK 12 AUDIO
    TITLE "0:"
    INDEX 01 00:15:21
  TRACK 13 AUDIO
    TITLE "3:cjc004_5622"
    INDEX 01 00:15:74
  TRACK 14 AUDIO
    TITLE "0:"
    INDEX 01 00:17:06
  TRACK 15 AUDIO
    TITLE "4:cjc004_5623"
    INDEX 01 00:17:33
  TRACK 16 AUDIO
    TITLE "0:"
    INDEX 01 00:19:18
  TRACK 17 AUDIO
    TITLE "5:cjc004_5624"
    INDEX 01 00:19:44
  TRACK 18 AUDIO
    TITLE "0:"
    INDEX 01 00:23:61
  TRACK 19 AUDIO
    TITLE "3:cjc004_5625"
    INDEX 01 00:24:41
  TRACK 20 AUDIO
    TITLE "0:"
    INDEX 01 00:25:37
  TRACK 21 AUDIO
    TITLE "4:cjc004_5626"
    INDEX 01 00:25:70
  TRACK 22 AUDIO
    TITLE "0:"
    INDEX 01 00:27:45
  TRACK 23 AUDIO
    TITLE "5:cjc004_5627"
    INDEX 01 00:28:02
  TRACK 24 AUDIO
    TITLE "0:"
    INDEX 01 00:32:58
  TRACK 25 AUDIO
    TITLE "3:cjc004_5628"
    INDEX 01 00:33:34
  TRACK 26 AUDIO
    TITLE "0:"
    INDEX 01 00:34:24
  TRACK 27 AUDIO
    TITLE "4:cjc004_5629"
    INDEX 01 00:34:45
  TRACK 28 AUDIO
    TITLE "0:"
    INDEX 01 00:36:15
  TRACK 29 AUDIO
    TITLE "5:cjc004_5630"
    INDEX 01 00:36:40
  TRACK 30 AUDIO
    TITLE "0:"
    INDEX 01 00:40:15
  TRACK 31 AUDIO
    TITLE "3:cjc004_5631"
    INDEX 01 00:40:73
  TRACK 32 AUDIO
    TITLE "0:"
    INDEX 01 00:42:12
  TRACK 33 AUDIO
    TITLE "4:cjc004_5632"
    INDEX 01 00:42:41
  TRACK 34 AUDIO
    TITLE "0:"
    INDEX 01 00:43:60
  TRACK 35 AUDIO
    TITLE "5:cjc004_5633"
    INDEX 01 00:44:09
  TRACK 36 AUDIO
    TITLE "0:"
    INDEX 01 00:49:12
  TRACK 37 AUDIO
    TITLE "3:cjc004_5634"
    INDEX 01 00:49:69
  TRACK 38 AUDIO
    TITLE "0:"
    INDEX 01 00:51:16
  TRACK 39 AUDIO
    TITLE "4:cjc004_5635"
    INDEX 01 00:51:48
  TRACK 40 AUDIO
    TITLE "0:"
    INDEX 01 00:52:69
  TRACK 41 AUDIO
    TITLE "5:cjc004_5636"
    INDEX 01 00:53:21
  TRACK 42 AUDIO
    TITLE "0:"
    INDEX 01 00:57:39
  TRACK 43 AUDIO
    TITLE "3:cjc004_5637"
    INDEX 01 00:58:18
  TRACK 44 AUDIO
    TITLE "0:"
    INDEX 01 00:59:16
  TRACK 45 AUDIO
    TITLE "4:cjc004_5638"
    INDEX 01 00:59:43
  TRACK 46 AUDIO
    TITLE "0:"
    INDEX 01 01:00:31
  TRACK 47 AUDIO
    TITLE "5:cjc004_5639"
    INDEX 01 01:00:53
  TRACK 48 AUDIO
    TITLE "0:"
    INDEX 01 01:05:22
  TRACK 49 AUDIO
    TITLE "3:cjc004_5640"
    INDEX 01 01:06:04
  TRACK 50 AUDIO
    TITLE "0:"
    INDEX 01 01:07:10
  TRACK 51 AUDIO
    TITLE "4:cjc004_5641"
    INDEX 01 01:07:35
  TRACK 52 AUDIO
    TITLE "0:"
    INDEX 01 01:08:48
  TRACK 53 AUDIO
    TITLE "5:cjc004_5642"
    INDEX 01 01:08:74
  TRACK 54 AUDIO
    TITLE "0:"
    INDEX 01 01:13:28
  TRACK 55 AUDIO
    TITLE "3:cjc004_5643"
    INDEX 01 01:14:08
  TRACK 56 AUDIO
    TITLE "0:"
    INDEX 01 01:15:15
  TRACK 57 AUDIO
    TITLE "4:cjc004_5644"
    INDEX 01 01:15:39
  TRACK 58 AUDIO
    TITLE "0:"
    INDEX 01 01:17:28
  TRACK 59 AUDIO
    TITLE "5:cjc004_5645"
    INDEX 01 01:17:49
  TRACK 60 AUDIO
    TITLE "0:"
    INDEX 01 01:22:19
